<?xml version="1.0" standalone="no"?><!DOCTYPE svg PUBLIC "-//W3C//DTD SVG 1.1//EN" "http://www.w3.org/Graphics/SVG/1.1/DTD/svg11.dtd"><svg t="1566434834218" class="icon" viewBox="0 0 1024 1024" version="1.1" xmlns="http://www.w3.org/2000/svg" p-id="2685" width="64" height="64" xmlns:xlink="http://www.w3.org/1999/xlink"><defs><style type="text/css"></style></defs><path d="M938.164706 379.482353c-46.682353-46.682353-106.917647-72.282353-170.164706-75.294118-18.070588-52.705882-51.2-99.388235-94.870588-132.517647-49.694118-37.647059-108.423529-58.729412-171.670588-58.729412-69.270588 0-137.035294 25.6-188.235295 72.282353-46.682353 42.164706-78.305882 99.388235-88.847058 161.129412-55.717647 6.023529-106.917647 30.117647-147.576471 70.776471-43.670588 45.176471-67.764706 103.905882-67.764706 167.152941C9.035294 647.529412 33.129412 707.764706 78.305882 752.941176c45.176471 45.176471 103.905882 69.270588 167.152942 70.776471h527.058823c63.247059-4.517647 120.470588-31.623529 165.647059-76.8 49.694118-49.694118 76.8-114.447059 76.8-183.717647s-27.105882-134.023529-76.8-183.717647z m-391.529412 329.788235L512 748.423529l-18.070588-21.082353-117.458824-137.035294h99.388236V358.4h72.282352v233.411765H647.529412c-40.658824 45.176471-60.235294 72.282353-100.894118 117.458823z" p-id="2686" fill="#1296db"></path></svg>